<svg width="12" height="12" viewBox="0 0 12 12" fill="none" xmlns="http://www.w3.org/2000/svg">
<path d="M9.65255 1.10148C9.65255 1.10148 7.56986 3.69234 5.61553 3.69234H1.76938C1.66737 3.69234 1.56955 3.73286 1.49742 3.80499C1.42529 3.87712 1.38477 3.97495 1.38477 4.07696V6.38465C1.38477 6.48665 1.42529 6.58448 1.49742 6.65661C1.56955 6.72874 1.66737 6.76926 1.76938 6.76926H5.61553C7.56986 6.76926 9.65255 9.37095 9.65255 9.37095C9.79823 9.56325 10.2309 9.43152 10.2309 9.13465V1.33657C10.2309 1.04066 9.82227 0.884168 9.65255 1.10148Z" stroke="#FEFEFE" stroke-linecap="round" stroke-linejoin="round"/>
<path d="M1.38462 5.99989C1.38462 5.99989 1 5.85566 1 5.23066C1 4.60566 1.38462 4.46143 1.38462 4.46143" stroke="#FEFEFE" stroke-linecap="round" stroke-linejoin="round"/>
<path d="M10.6152 5.75984C10.6152 5.75984 10.9998 5.65575 10.9998 5.23099C10.9998 4.80623 10.6152 4.70215 10.6152 4.70215" stroke="#FEFEFE" stroke-linecap="round" stroke-linejoin="round"/>
<path d="M6 3.69238V6.76931" stroke="#FEFEFE" stroke-linecap="round" stroke-linejoin="round"/>
<path d="M2.53857 3.69238V6.76931" stroke="#FEFEFE" stroke-linecap="round" stroke-linejoin="round"/>
<path d="M3.30762 6.76904V10.8075C3.30762 10.8585 3.32788 10.9074 3.36394 10.9435C3.40001 10.9796 3.44892 10.9998 3.49992 10.9998H4.77396C4.83421 10.9998 4.89363 10.9857 4.94741 10.9585C5.0012 10.9314 5.04785 10.892 5.08361 10.8435C5.11938 10.795 5.14325 10.7388 5.15331 10.6794C5.16336 10.62 5.15932 10.5591 5.14151 10.5015C4.94007 9.85534 4.46146 9.12674 4.46146 7.92289H4.84608C4.94808 7.92289 5.04591 7.88237 5.11804 7.81024C5.19017 7.73811 5.23069 7.64028 5.23069 7.53827V7.15366C5.23069 7.05165 5.19017 6.95382 5.11804 6.88169C5.04591 6.80956 4.94808 6.76904 4.84608 6.76904H4.46146" stroke="#FEFEFE" stroke-linecap="round" stroke-linejoin="round"/>
</svg>
