<svg width="23" height="16" viewBox="0 0 23 16" fill="none" xmlns="http://www.w3.org/2000/svg">
<path d="M0 14.25C0 14.9404 0.559644 15.5 1.25 15.5H5.25C5.94036 15.5 6.5 14.9404 6.5 14.25C6.5 13.5596 5.94036 13 5.25 13H1.25C0.559644 13 0 13.5596 0 14.25ZM0 8C0 8.69036 0.559644 9.25 1.25 9.25H13.5C14.1904 9.25 14.75 8.69036 14.75 8C14.75 7.30964 14.1904 6.75 13.5 6.75H1.25C0.559644 6.75 0 7.30964 0 8ZM1.25 0.5C0.559645 0.5 0 1.05964 0 1.75C0 2.44036 0.559644 3 1.25 3H21.25C21.9404 3 22.5 2.44036 22.5 1.75C22.5 1.05964 21.9404 0.5 21.25 0.5H1.25Z" fill="#0E194F"/>
</svg>
