<svg width="10" height="10" viewBox="0 0 10 10" fill="none" xmlns="http://www.w3.org/2000/svg">
<path d="M5.0697 0.00046455C2.25794 -0.0375126 -0.0375126 2.25794 0.00046455 5.0697C0.037961 7.76632 2.23367 9.96203 4.93029 9.99952C7.74252 10.038 10.0375 7.74252 9.99904 4.93077C9.96203 2.23367 7.76632 0.037961 5.0697 0.00046455ZM8.10835 7.86631C8.09878 7.87666 8.08704 7.88479 8.07398 7.8901C8.06092 7.89541 8.04684 7.89778 8.03276 7.89705C8.01868 7.89631 8.00493 7.89249 7.99249 7.88585C7.98005 7.87921 7.96922 7.86991 7.96077 7.85862C7.74578 7.57733 7.48249 7.33651 7.1832 7.14739C6.57124 6.75464 5.79583 6.53831 4.99999 6.53831C4.20415 6.53831 3.42875 6.75464 2.81679 7.14739C2.5175 7.33643 2.25422 7.57717 2.03921 7.85838C2.03077 7.86967 2.01994 7.87897 2.0075 7.88561C1.99506 7.89225 1.98131 7.89607 1.96723 7.89681C1.95314 7.89754 1.93907 7.89517 1.92601 7.88986C1.91294 7.88455 1.90121 7.87642 1.89163 7.86607C1.18633 7.10469 0.786807 6.10982 0.769623 5.0721C0.730444 2.73314 2.64973 0.775392 4.98966 0.769623C7.32958 0.763854 9.23036 2.66392 9.23036 4.99999C9.23117 6.06273 8.83041 7.08653 8.10835 7.86631Z" fill="#FEFEFE"/>
<path d="M4.99991 2.30762C4.52592 2.30762 4.09735 2.48524 3.79282 2.80805C3.48828 3.13086 3.33613 3.57721 3.3705 4.05625C3.44021 4.99967 4.17115 5.76883 4.99991 5.76883C5.82868 5.76883 6.55818 4.99967 6.62933 4.05649C6.6649 3.58202 6.51395 3.13975 6.20437 2.81094C5.89863 2.48645 5.47078 2.30762 4.99991 2.30762Z" fill="#FEFEFE"/>
</svg>
